 http://img526.imageshack.us/img526/8782/rrgbannercopy.jpg
 
http://desibbrg.org/images/60064043794405751432.jpg
 
http://desibbrg.org/images/37249116587509716172.jpg
 
http://desibbrg.org/images/86800388760968756208.jpg
 
http://desibbrg.org/images/94593936009084418702.jpg
 
http://desibbrg.org/images/89952635841591819159.jpg

Media Info - 
General
Complete name                  : Father Mazha Godfather ~ XviD ~ 1CD ~ VCDRip.avi
Format                         : AVI
Format/Info                    : Audio Video Interleave
File size                      : 699 MiB
Duration                       : 2h 27mn
Overall bit rate mode          : Variable
Overall bit rate               : 662 Kbps
Writing application            : VirtualDubMod 1.5.10.2 (build 2542/release)
Writing library                : VirtualDubMod build 2542/release

Video
ID                             : 0
Format                         : MPEG-4 Visual
Format profile                 : Advanced Simple@L5
Format settings, BVOP          : 1
Format settings, QPel          : No
Format settings, GMC           : No warppoints
Format settings, Matrix        : Default (H.263)
Muxing mode                    : Packed bitstream
Codec ID                       : XVID
Codec ID/Hint                  : XviD
Duration                       : 2h 27mn
Bit rate                       : 548 Kbps
Width                          : 640 pixels
Height                         : 480 pixels
Display aspect ratio           : 4:3
Frame rate                     : 25.000 fps
Color space                    : YUV
Chroma subsampling             : 4:2:0
Bit depth                      : 8 bits
Scan type                      : Progressive
Compression mode               : Lossy
Bits/(Pixel*Frame)             : 0.071
Stream size                    : 579 MiB (83%)
Writing library                : XviD 1.2.1 (UTC 2008-12-04)

Audio
ID                             : 1
Format                         : MPEG Audio
Format version                 : Version 1
Format profile                 : Layer 3
Mode                           : Joint stereo
Codec ID                       : 55
Codec ID/Hint                  : MP3
Duration                       : 2h 27mn
Bit rate mode                  : Variable
Bit rate                       : 101 Kbps
Nominal bit rate               : 128 Kbps
Channel(s)                     : 2 channels
Sampling rate                  : 48.0 KHz
Compression mode               : Lossy
Stream size                    : 106 MiB (15%)
Alignment                      : Aligned on interleaves
Interleave, duration           : 24 ms (0.60 video frame)
Interleave, preload duration   : 521 ms
Writing library                : LAME3.98r
Encoding settings              : -m j -V 4 -q 2 -lowpass 17 --abr 128

Ripper : san.kad23 

Seeding 24x7... Extreme Seeding...


Enjoy!
